# MagicaVoxel @ Ephtracy

# group
o 

# material
mtllib Enemy.mtl
usemtl palette

# normals
vn -1 0 0
vn 1 0 0
vn 0 0 1
vn 0 0 -1
vn 0 -1 0
vn 0 1 0

# texcoords
vt 0.0292969 0.5
vt 0.685547 0.5
vt 0.716797 0.5
vt 0.994141 0.5

# verts
v -0.5 0.3 0.2
v -0.5 0.3 0
v -0.5 0.4 0.2
v -0.5 0.4 0
v -0.5 0.7 0.2
v -0.5 0.7 0
v -0.3 0 0.2
v -0.3 0 0
v -0.3 0.2 0.2
v -0.3 0.2 0
v -0.3 0.3 0.2
v -0.3 0.3 0
v -0.3 0.7 0.2
v -0.3 0.7 0
v -0.3 1 0.2
v -0.3 1 0
v 0.1 0 0.2
v 0.1 0 0
v 0.1 0.2 0.2
v 0.1 0.2 0
v -0.1 0 0.2
v -0.1 0 0
v -0.1 0.2 0.2
v -0.1 0.2 0
v 0.3 0 0.2
v 0.3 0 0
v 0.3 0.2 0.2
v 0.3 0.2 0
v 0.3 0.3 0.2
v 0.3 0.3 0
v 0.3 0.7 0.2
v 0.3 0.7 0
v 0.3 1 0.2
v 0.3 1 0
v 0.5 0.3 0.2
v 0.5 0.3 0
v 0.5 0.4 0.2
v 0.5 0.4 0
v 0.5 0.7 0.2
v 0.5 0.7 0
v -0.5 0.3 0.2
v -0.5 0.4 0.2
v -0.5 0.7 0.2
v -0.3 0 0.2
v -0.3 0.2 0.2
v -0.3 0.3 0.2
v -0.3 0.4 0.2
v -0.3 0.5 0.2
v -0.3 0.7 0.2
v -0.3 1 0.2
v -0.1 0 0.2
v -0.1 0.2 0.2
v 0.1 0 0.2
v 0.1 0.2 0.2
v 0.3 0 0.2
v 0.3 0.2 0.2
v 0.3 0.3 0.2
v 0.3 0.4 0.2
v 0.3 0.5 0.2
v 0.3 0.7 0.2
v 0.3 1 0.2
v 0.5 0.3 0.2
v 0.5 0.4 0.2
v 0.5 0.7 0.2
v -0.5 0.3 0
v -0.5 0.4 0
v -0.5 0.7 0
v -0.3 0 0
v -0.3 0.2 0
v -0.3 0.3 0
v -0.3 0.4 0
v -0.3 0.5 0
v -0.3 0.7 0
v -0.3 1 0
v -0.2 0.8 0
v -0.2 0.9 0
v -0.1 0 0
v -0.1 0.2 0
v -0.1 0.8 0
v -0.1 0.9 0
v 0.1 0 0
v 0.1 0.2 0
v 0.1 0.8 0
v 0.1 0.9 0
v 0.2 0.8 0
v 0.2 0.9 0
v 0.3 0 0
v 0.3 0.2 0
v 0.3 0.3 0
v 0.3 0.4 0
v 0.3 0.5 0
v 0.3 0.7 0
v 0.3 1 0
v 0.5 0.3 0
v 0.5 0.4 0
v 0.5 0.7 0
v -0.3 0 0.2
v -0.1 0 0.2
v 0.1 0 0.2
v 0.3 0 0.2
v -0.3 0 0
v -0.1 0 0
v 0.1 0 0
v 0.3 0 0
v -0.1 0.2 0.2
v 0.1 0.2 0.2
v -0.1 0.2 0
v 0.1 0.2 0
v -0.5 0.3 0.2
v -0.3 0.3 0.2
v 0.3 0.3 0.2
v 0.5 0.3 0.2
v -0.5 0.3 0
v -0.3 0.3 0
v 0.3 0.3 0
v 0.5 0.3 0
v -0.5 0.7 0.2
v -0.3 0.7 0.2
v 0.3 0.7 0.2
v 0.5 0.7 0.2
v -0.5 0.7 0
v -0.3 0.7 0
v 0.3 0.7 0
v 0.5 0.7 0
v -0.3 1 0.2
v 0.3 1 0.2
v -0.3 1 0
v 0.3 1 0

# faces
f 3/1/1 2/1/1 1/1/1
f 4/1/1 2/1/1 3/1/1
f 5/3/1 4/3/1 3/3/1
f 6/3/1 4/3/1 5/3/1
f 9/1/1 8/1/1 7/1/1
f 10/1/1 8/1/1 9/1/1
f 11/2/1 10/2/1 9/2/1
f 12/2/1 10/2/1 11/2/1
f 15/1/1 14/1/1 13/1/1
f 16/1/1 14/1/1 15/1/1
f 19/1/1 18/1/1 17/1/1
f 20/1/1 18/1/1 19/1/1
f 21/1/2 22/1/2 23/1/2
f 23/1/2 22/1/2 24/1/2
f 25/1/2 26/1/2 27/1/2
f 27/1/2 26/1/2 28/1/2
f 27/2/2 28/2/2 29/2/2
f 29/2/2 28/2/2 30/2/2
f 31/1/2 32/1/2 33/1/2
f 33/1/2 32/1/2 34/1/2
f 35/1/2 36/1/2 37/1/2
f 37/1/2 36/1/2 38/1/2
f 37/3/2 38/3/2 39/3/2
f 39/3/2 38/3/2 40/3/2
f 46/1/3 42/1/3 41/1/3
f 47/3/3 43/3/3 42/3/3
f 47/1/3 42/1/3 46/1/3
f 48/3/3 43/3/3 47/3/3
f 49/3/3 43/3/3 48/3/3
f 51/1/3 45/1/3 44/1/3
f 52/2/3 46/2/3 45/2/3
f 52/1/3 45/1/3 51/1/3
f 52/2/3 47/2/3 46/2/3
f 52/2/3 48/2/3 47/2/3
f 54/2/3 48/2/3 52/2/3
f 55/1/3 54/1/3 53/1/3
f 56/2/3 48/2/3 54/2/3
f 56/1/3 54/1/3 55/1/3
f 57/2/3 48/2/3 56/2/3
f 58/2/3 48/2/3 57/2/3
f 59/3/3 49/3/3 48/3/3
f 59/2/3 48/2/3 58/2/3
f 60/1/3 50/1/3 49/1/3
f 60/3/3 49/3/3 59/3/3
f 61/1/3 50/1/3 60/1/3
f 62/1/3 58/1/3 57/1/3
f 63/3/3 59/3/3 58/3/3
f 63/1/3 58/1/3 62/1/3
f 63/3/3 60/3/3 59/3/3
f 64/3/3 60/3/3 63/3/3
f 65/1/4 66/1/4 70/1/4
f 66/3/4 67/3/4 71/3/4
f 70/1/4 66/1/4 71/1/4
f 71/3/4 67/3/4 72/3/4
f 72/3/4 67/3/4 73/3/4
f 73/1/4 74/1/4 75/1/4
f 75/1/4 74/1/4 76/1/4
f 68/1/4 69/1/4 77/1/4
f 69/2/4 70/2/4 78/2/4
f 77/1/4 69/1/4 78/1/4
f 70/2/4 71/2/4 78/2/4
f 71/2/4 72/2/4 78/2/4
f 75/4/4 76/4/4 79/4/4
f 73/1/4 75/1/4 79/1/4
f 76/1/4 74/1/4 80/1/4
f 79/4/4 76/4/4 80/4/4
f 78/2/4 72/2/4 82/2/4
f 73/1/4 79/1/4 83/1/4
f 79/1/4 80/1/4 83/1/4
f 80/1/4 74/1/4 84/1/4
f 83/1/4 80/1/4 84/1/4
f 73/1/4 83/1/4 85/1/4
f 83/4/4 84/4/4 85/4/4
f 84/1/4 74/1/4 86/1/4
f 85/4/4 84/4/4 86/4/4
f 81/1/4 82/1/4 87/1/4
f 82/2/4 72/2/4 88/2/4
f 87/1/4 82/1/4 88/1/4
f 88/2/4 72/2/4 89/2/4
f 89/2/4 72/2/4 90/2/4
f 72/3/4 73/3/4 91/3/4
f 90/2/4 72/2/4 91/2/4
f 73/1/4 85/1/4 92/1/4
f 91/3/4 73/3/4 92/3/4
f 85/1/4 86/1/4 92/1/4
f 86/1/4 74/1/4 93/1/4
f 92/1/4 86/1/4 93/1/4
f 89/1/4 90/1/4 94/1/4
f 91/3/4 92/3/4 95/3/4
f 94/1/4 90/1/4 95/1/4
f 90/3/4 91/3/4 95/3/4
f 95/3/4 92/3/4 96/3/4
f 101/1/5 98/1/5 97/1/5
f 102/1/5 98/1/5 101/1/5
f 103/1/5 100/1/5 99/1/5
f 104/1/5 100/1/5 103/1/5
f 107/2/5 106/2/5 105/2/5
f 108/2/5 106/2/5 107/2/5
f 113/1/5 110/1/5 109/1/5
f 114/1/5 110/1/5 113/1/5
f 115/1/5 112/1/5 111/1/5
f 116/1/5 112/1/5 115/1/5
f 117/3/6 118/3/6 121/3/6
f 121/3/6 118/3/6 122/3/6
f 119/3/6 120/3/6 123/3/6
f 123/3/6 120/3/6 124/3/6
f 125/1/6 126/1/6 127/1/6
f 127/1/6 126/1/6 128/1/6
